#!OML:ASF H:\ManfredETheater\Project 1\Capture day 1\Session 1\subject.ASF
:FULLY-SPECIFIED
:DEGREES
213
root 2.43535 14.8542 -30.9534 200.394 -47.5944 -180.657
lowerback 38.0827 -1.0718 -1.99862
upperback 6.11565 -3.15798 2.15932
thorax -11.7518 -1.88033 4.82997
lowerneck -9.7974 -11.1472 -11.1926
upperneck -11.7977 -14.0305 23.7841
head 0.896384 -7.54667 8.35918
rclavicle -8.78628e-014 4.35338e-014
rhumerus -5.81674 -1.7355 -71.7387
rradius 72.0561
rwrist -2.97822
rhand -27.1805 -5.35351
rfingers 7.12502
rthumb -0.594399 -35.3324
lclavicle -8.78628e-014 4.35338e-014
lhumerus -15.4263 -1.71059 79.4926
lradius 41.8255
lwrist -16.1841
lhand -32.292 -2.46166
lfingers 7.12502
lthumb -5.53064 27.4462
rfemur -85.3815 -15.5067 42.2033
rtibia 75.4375
rfoot -12.0678 3.58106
rtoes -1.90534
lfemur -56.4579 9.62169 -36.9974
ltibia 104.49
lfoot -9.93314 7.7586
ltoes 2.44794
214
root 2.42265 15.0579 -31.0796 200.694 -47.0613 -180.92
lowerback 37.792 -1.0287 -2.15579
upperback 6.03403 -3.1434 2.14326
thorax -11.7372 -1.85993 4.88184
lowerneck -9.9686 -11.1308 -11.0811
upperneck -11.9681 -14.0107 23.7189
head 0.855298 -7.55144 8.32134
rclavicle 5.48646e-014 6.7388e-014
rhumerus -6.61147 -2.02449 -73.1622
rradius 71.7574
rwrist -3.04252
rhand -27.3066 -5.60313
rfingers 7.12502
rthumb -0.716217 -35.5817
lclavicle 5.48646e-014 6.7388e-014
lhumerus -16.2892 -1.60476 79.7247
lradius 42.6005
lwrist -15.8151
lhand -32.7232 -2.78526
lfingers 7.12502
lthumb -5.94695 27.1113
rfemur -84.0577 -16.047 42.6259
rtibia 73.8352
rfoot -11.3343 5.27299
rtoes 0.0534749
lfemur -57.0274 8.56967 -36.5738
ltibia 104.266
lfoot -9.20028 8.26494
ltoes 4.2276
215
root 2.41137 15.2561 -31.2032 200.911 -46.4765 -181.116
lowerback 37.5145 -0.958087 -2.31588
upperback 5.97316 -3.1009 2.11945
thorax -11.7052 -1.82981 4.91513
lowerneck -10.1535 -11.1059 -10.9468
upperneck -12.0988 -13.9851 23.6413
head 0.823793 -7.55024 8.27455
rclavicle 3.29983e-014 -5.00937e-014
rhumerus -7.35587 -2.36165 -74.5459
rradius 71.3731
rwrist -3.15766
rhand -27.3972 -5.83025
rfingers 7.12502
rthumb -0.80372 -35.8085
lclavicle 3.29983e-014 -5.00937e-014
lhumerus -17.071 -1.55819 79.946
lradius 43.2544
lwrist -15.5667
lhand -33.1494 -2.99161
lfingers 7.12502
lthumb -6.35845 26.893
rfemur -82.7887 -16.5885 43.0497
rtibia 72.3233
rfoot -10.2908 7.09248
rtoes 2.24704
lfemur -57.6905 7.50807 -36.0823
ltibia 104.108
lfoot -8.82184 8.9164
ltoes 5.9295
216
root 2.40155 15.4496 -31.3246 201.049 -45.8206 -181.245
lowerback 37.2537 -0.852324 -2.49143
upperback 5.92796 -3.02562 2.08361
thorax -11.6633 -1.7868 4.93042
lowerneck -10.3507 -11.0708 -10.7923
upperneck -12.1953 -13.9511 23.5632
head 0.801128 -7.54273 8.22346
rclavicle -4.53229e-014 4.07509e-014
rhumerus -8.03799 -2.72883 -75.8938
rradius 70.8882
rwrist -3.30557
rhand -27.4524 -6.01831
rfingers 7.12502
rthumb -0.857007 -35.9963
lclavicle -4.53229e-014 4.07509e-014
lhumerus -17.7729 -1.561 80.1481
lradius 43.7958
lwrist -15.4068
lhand -33.5057 -3.09823
lfingers 7.12502
lthumb -6.70236 26.7757
rfemur -81.5818 -17.1049 43.4467
rtibia 70.9253
rfoot -8.89218 9.02778
rtoes 4.53649
lfemur -58.438 6.44193 -35.4986
ltibia 103.946
lfoot -8.70961 9.67301
ltoes 7.54006
217
root 2.39239 15.6386 -31.4434 201.107 -45.0981 -181.286
lowerback 37.0089 -0.7237 -2.64964
upperback 5.89261 -2.91929 2.03381
thorax -11.6195 -1.73193 4.9094
lowerneck -10.5472 -11.0262 -10.6269
upperneck -12.275 -13.908 23.4903
head 0.781551 -7.53022 8.17285
rclavicle -1.23246e-014 4.21423e-014
rhumerus -8.65073 -3.11148 -77.2067
rradius 70.2895
rwrist -3.46016
rhand -27.47 -6.15784
rfingers 7.12502
rthumb -0.873999 -36.1358
lclavicle -1.23246e-014 4.21423e-014
lhumerus -18.404 -1.58747 80.3273
lradius 44.237
lwrist -15.3124
lhand -33.7237 -3.14112
lfingers 7.12502
lthumb -6.91284 26.726
rfemur -80.4478 -17.5824 43.7993
rtibia 69.6595
rfoot -7.09396 11.0587
rtoes 6.77909
lfemur -59.2707 5.39291 -34.7985
ltibia 103.71
lfoot -8.77475 10.4825
ltoes 8.96478
218
root 2.38366 15.8233 -31.5588 201.126 -44.3154 -181.268
lowerback 36.7723 -0.585737 -2.78927
upperback 5.85781 -2.7964 1.96871
thorax -11.5803 -1.67049 4.85609
lowerneck -10.7458 -10.969 -10.4599
upperneck -12.3419 -13.8503 23.4153
head 0.763331 -7.50974 8.12257
rclavicle -2.14687e-014 -5.00937e-014
rhumerus -9.18465 -3.4772 -78.4779
rradius 69.5683
rwrist -3.60898
rhand -27.4627 -6.23894
rfingers 7.12502
rthumb -0.866931 -36.2169
lclavicle -2.14687e-014 -5.00937e-014
lhumerus -18.9825 -1.60294 80.4818
lradius 44.5996
lwrist -15.2366
lhand -33.7673 -3.17873
lfingers 7.12502
lthumb -6.9549 26.687
rfemur -79.4103 -17.9983 44.0501
rtibia 68.5384
rfoot -4.86532 13.119
rtoes 8.73211
lfemur -60.1888 4.3357 -33.9742
ltibia 103.339
lfoot -8.9733 11.2593
ltoes 10.4252
219
root 2.37458 16.0035 -31.6708 201.115 -43.4802 -181.202
lowerback 36.5548 -0.447871 -2.89308
upperback 5.81766 -2.66235 1.88567
thorax -11.5566 -1.60474 4.7613
lowerneck -10.9387 -10.9019 -10.2996
upperneck -12.4039 -13.7803 23.3384
head 0.744005 -7.48292 8.07447
rclavicle -4.45278e-014 2.78299e-015
rhumerus -9.64276 -3.8138 -79.7002
rradius 68.7221
rwrist -3.74814
rhand -27.4375 -6.24935
rfingers 7.12502
rthumb -0.84267 -36.2274
lclavicle -4.45278e-014 2.78299e-015
lhumerus -19.524 -1.59305 80.6151
lradius 44.9076
lwrist -15.1379
lhand -33.6252 -3.27739
lfingers 7.12502
lthumb -6.81774 26.5928
rfemur -78.4726 -18.3461 44.1557
rtibia 67.5743
rfoot -2.24463 15.0967
rtoes 10.0537
lfemur -61.1699 3.27787 -33.0251
ltibia 102.775
lfoot -9.2101 11.9275
ltoes 11.9542
220
root 2.36464 16.1785 -31.7794 201.092 -42.5973 -181.108
lowerback 36.3608 -0.317642 -2.95907
upperback 5.76655 -2.52576 1.78261
thorax -11.5556 -1.53798 4.62549
lowerneck -11.1289 -10.8252 -10.1474
upperneck -12.4599 -13.6979 23.2536
head 0.723938 -7.44933 8.02667
rclavicle -5.56597e-015 -3.61788e-014
rhumerus -10.0276 -4.10451 -80.8673
rradius 67.7539
rwrist -3.87401
rhand -27.3943 -6.1917
rfingers 7.12502
rthumb -0.800925 -36.1699
lclavicle -5.56597e-015 -3.61788e-014
lhumerus -20.0409 -1.519 80.7288
lradius 45.1691
lwrist -14.9949
lhand -33.3219 -3.4973
lfingers 7.12502
lthumb -6.525 26.3822
rfemur -77.6294 -18.6053 44.0687
rtibia 66.7814
rfoot 0.562943 16.8528
rtoes 10.0053
lfemur -62.1785 2.21453 -31.9465
ltibia 101.975
lfoot -9.58167 12.4415
ltoes 13.3386
221
root 2.35304 16.3474 -31.8844 201.087 -41.6723 -181.024
lowerback 36.1907 -0.19918 -2.99501
upperback 5.70147 -2.39462 1.65889
thorax -11.5798 -1.47327 4.45523
lowerneck -11.3189 -10.7443 -10.0136
upperneck -12.5037 -13.6094 23.1508
head 0.70595 -7.41042 7.97658
rclavicle -2.98177e-014 4.31363e-014
rhumerus -10.3446 -4.34264 -81.9592
rradius 66.6691
rwrist -3.95548
rhand -27.3393 -6.04899
rfingers 7.12502
rthumb -0.747756 -36.0274
lclavicle -2.98177e-014 4.31363e-014
lhumerus -20.5457 -1.37118 80.8362
lradius 45.4047
lwrist -14.7883
lhand -32.901 -3.85145
lfingers 7.12502
lthumb -6.11864 26.0402
rfemur -76.8883 -18.7774 43.7545
rtibia 66.1831
rfoot 3.30169 18.2931
rtoes 8.02099
lfemur -63.1825 1.13957 -30.7748
ltibia 100.901
lfoot -10.097 12.7879
ltoes 14.5822
222
root 2.33929 16.5077 -31.9864 201.107 -40.707 -180.974
lowerback 36.0545 -0.0894895 -3.01631
upperback 5.61715 -2.27049 1.5191
thorax -11.6381 -1.41039 4.26459
lowerneck -11.5097 -10.6638 -9.91393
upperneck -12.5247 -13.5189 23.0296
head 0.695106 -7.36625 7.92554
rclavicle -1.07741e-013 4.7112e-014
rhumerus -10.6037 -4.51959 -82.9576
rradius 65.4736
rwrist -3.96287
rhand -27.2737 -5.84315
rfingers 7.12502
rthumb -0.684454 -35.8218
lclavicle -1.07741e-013 4.7112e-014
lhumerus -21.0587 -1.16444 80.9518
lradius 45.6333
lwrist -14.5092
lhand -32.436 -4.33686
lfingers 7.12502
lthumb -5.66968 25.5673
rfemur -76.2426 -18.8545 43.1945
rtibia 65.815
rfoot 5.68372 19.3324
rtoes 4.04274
lfemur -64.1492 0.0564248 -29.5301
ltibia 99.5371
lfoot -10.711 12.9807
ltoes 15.7299
223
root 2.32301 16.6577 -32.0866 201.164 -39.6989 -180.981
lowerback 35.9477 0.0211859 -3.04554
upperback 5.51268 -2.1492 1.36468
thorax -11.7296 -1.34674 4.06504
lowerneck -11.702 -10.5909 -9.85154
upperneck -12.5123 -13.4357 22.8872
head 0.69591 -7.31992 7.87169
rclavicle -6.75868e-015 9.54166e-015
rhumerus -10.8188 -4.64286 -83.8473
rradius 64.1773
rwrist -3.88325
rhand -27.2158 -5.55646
rfingers 7.12502
rthumb -0.628519 -35.5353
lclavicle -6.75868e-015 9.54166e-015
lhumerus -21.5907 -0.934049 81.088
lradius 45.8656
lwrist -14.1672
lhand -31.9916 -4.8959
lfingers 7.12502
lthumb -5.24065 25.0193
rfemur -75.6766 -18.832 42.3788
rtibia 65.7148
rfoot 7.43337 19.9691
rtoes -2.33759
lfemur -65.0487 -1.01316 -28.2458
ltibia 97.8772
lfoot -11.4591 13.0134
ltoes 16.4497
224
root 2.30405 16.7962 -32.186 201.259 -38.6538 -181.051
lowerback 35.8554 0.135015 -3.0918
upperback 5.38752 -2.02968 1.20123
thorax -11.849 -1.28146 3.86635
lowerneck -11.9049 -10.5308 -9.83188
upperneck -12.4432 -13.3663 22.7196
head 0.717536 -7.2717 7.81249
rclavicle -5.36719e-014 -1.03368e-014
rhumerus -10.9991 -4.72088 -84.6211
rradius 62.7899
rwrist -3.67514
rhand -27.1672 -5.21511
rfingers 7.12502
rthumb -0.581557 -35.1941
lclavicle -5.36719e-014 -1.03368e-014
lhumerus -22.1464 -0.691457 81.2545
lradius 46.0964
lwrist -13.8116
lhand -31.629 -5.49408
lfingers 7.12502
lthumb -4.89055 24.4295
rfemur -75.184 -18.7133 41.3263
rtibia 65.9125
rfoot 8.31258 20.2151
rtoes -9.18893
lfemur -65.8697 -2.05763 -26.9391
ltibia 95.9279
lfoot -12.295 12.8763
ltoes 16.7129
